<svg width="247" height="238" viewBox="0 0 247 238" fill="none" xmlns="http://www.w3.org/2000/svg">
<mask id="path-1-outside-1_2185_13" maskUnits="userSpaceOnUse" x="0" y="0" width="247" height="238" fill="black">
<rect fill="white" width="247" height="238"/>
<path d="M227 119C227 173.676 180.661 218 123.5 218C66.3385 218 20 173.676 20 119C20 64.3238 66.3385 20 123.5 20C180.661 20 227 64.3238 227 119Z"/>
<path d="M140.451 150H120.451L127.851 107.5H111.151L113.651 92.7L136.351 87.5H151.351L140.451 150ZM117.351 149.7L74.9508 145.2H118.151L117.351 149.7ZM120.751 130.4L78.3508 125.9H121.551L120.751 130.4ZM122.451 120.8L80.0508 116.3H123.251L122.451 120.8ZM107.451 111.2L65.0508 106.7H108.251L107.451 111.2ZM109.051 101.6L66.6508 97.1H109.751L109.051 101.6ZM119.051 140L76.6508 135.5H119.851L119.051 140ZM110.751 91.1L79.5508 87.5H122.751L110.951 90.2L110.751 91.1Z"/>
</mask>
<path d="M227 119C227 173.676 180.661 218 123.5 218C66.3385 218 20 173.676 20 119C20 64.3238 66.3385 20 123.5 20C180.661 20 227 64.3238 227 119Z" fill="#061800"/>
<path d="M140.451 150H120.451L127.851 107.5H111.151L113.651 92.7L136.351 87.5H151.351L140.451 150ZM117.351 149.7L74.9508 145.2H118.151L117.351 149.7ZM120.751 130.4L78.3508 125.9H121.551L120.751 130.4ZM122.451 120.8L80.0508 116.3H123.251L122.451 120.8ZM107.451 111.2L65.0508 106.7H108.251L107.451 111.2ZM109.051 101.6L66.6508 97.1H109.751L109.051 101.6ZM119.051 140L76.6508 135.5H119.851L119.051 140ZM110.751 91.1L79.5508 87.5H122.751L110.951 90.2L110.751 91.1Z" fill="#5F3DC4"/>
<path d="M140.451 150V170H157.265L160.153 153.436L140.451 150ZM120.451 150L100.747 146.569L96.6675 170H120.451V150ZM127.851 107.5L147.554 110.931L151.634 87.5H127.851V107.5ZM111.151 107.5L91.4302 104.169L87.4891 127.5H111.151V107.5ZM113.651 92.7L109.185 73.205L96.1564 76.1895L93.9302 89.3688L113.651 92.7ZM136.351 87.5V67.5H134.089L131.885 68.005L136.351 87.5ZM151.351 87.5L171.053 90.9361L175.141 67.5H151.351V87.5ZM117.351 149.7L115.24 169.588L133.779 171.556L137.042 153.201L117.351 149.7ZM74.9508 145.2V125.2L72.84 165.088L74.9508 145.2ZM118.151 145.2L137.842 148.701L142.02 125.2H118.151V145.2ZM120.751 130.4L118.64 150.288L137.179 152.256L140.442 133.901L120.751 130.4ZM78.3508 125.9V105.9L76.24 145.788L78.3508 125.9ZM121.551 125.9L141.242 129.401L145.42 105.9H121.551V125.9ZM122.451 120.8L120.34 140.688L138.879 142.656L142.142 124.301L122.451 120.8ZM80.0508 116.3V96.3L77.94 136.188L80.0508 116.3ZM123.251 116.3L142.942 119.801L147.12 96.3H123.251V116.3ZM107.451 111.2L105.34 131.088L123.879 133.056L127.142 114.701L107.451 111.2ZM65.0508 106.7V86.7L62.94 126.588L65.0508 106.7ZM108.251 106.7L127.942 110.201L132.12 86.7H108.251V106.7ZM109.051 101.6L106.94 121.488L125.885 123.499L128.813 104.674L109.051 101.6ZM66.6508 97.1V77.1L64.54 116.988L66.6508 97.1ZM109.751 97.1L129.513 100.174L133.102 77.1H109.751V97.1ZM119.051 140L116.94 159.888L135.479 161.856L138.742 143.501L119.051 140ZM76.6508 135.5V115.5L74.54 155.388L76.6508 135.5ZM119.851 135.5L139.542 139.001L143.72 115.5H119.851V135.5ZM110.751 91.1L108.458 110.968L126.364 113.034L130.275 95.4385L110.751 91.1ZM79.5508 87.5V67.5L77.2583 107.368L79.5508 87.5ZM122.751 87.5L127.212 106.996L122.751 67.5V87.5ZM110.951 90.2L106.49 70.7039L94.1688 73.523L91.427 85.8615L110.951 90.2ZM207 119C207 161.802 170.463 198 123.5 198V238C190.86 238 247 185.55 247 119H207ZM123.5 198C76.5371 198 40 161.802 40 119H0C0 185.55 56.14 238 123.5 238V198ZM40 119C40 76.198 76.5371 40 123.5 40V0C56.14 0 0 52.4496 0 119H40ZM123.5 40C170.463 40 207 76.198 207 119H247C247 52.4496 190.86 0 123.5 0V40ZM140.451 130H120.451V170H140.451V130ZM140.154 153.431L147.554 110.931L108.147 104.069L100.747 146.569L140.154 153.431ZM127.851 87.5H111.151V127.5H127.851V87.5ZM130.871 110.831L133.371 96.0312L93.9302 89.3688L91.4302 104.169L130.871 110.831ZM118.117 112.195L140.817 106.995L131.885 68.005L109.185 73.205L118.117 112.195ZM136.351 107.5H151.351V67.5H136.351V107.5ZM131.648 84.0639L120.748 146.564L160.153 153.436L171.053 90.9361L131.648 84.0639ZM119.462 129.812L77.0616 125.312L72.84 165.088L115.24 169.588L119.462 129.812ZM74.9508 165.2H118.151V125.2H74.9508V165.2ZM98.4595 141.699L97.6595 146.199L137.042 153.201L137.842 148.701L98.4595 141.699ZM122.862 110.512L80.4616 106.012L76.24 145.788L118.64 150.288L122.862 110.512ZM78.3508 145.9H121.551V105.9H78.3508V145.9ZM101.86 122.399L101.06 126.899L140.442 133.901L141.242 129.401L101.86 122.399ZM124.562 100.912L82.1616 96.4117L77.94 136.188L120.34 140.688L124.562 100.912ZM80.0508 136.3H123.251V96.3H80.0508V136.3ZM103.56 112.799L102.76 117.299L142.142 124.301L142.942 119.801L103.56 112.799ZM109.562 91.3117L67.1616 86.8117L62.94 126.588L105.34 131.088L109.562 91.3117ZM65.0508 126.7H108.251V86.7H65.0508V126.7ZM88.5595 103.199L87.7595 107.699L127.142 114.701L127.942 110.201L88.5595 103.199ZM111.162 81.7117L68.7616 77.2117L64.54 116.988L106.94 121.488L111.162 81.7117ZM66.6508 117.1H109.751V77.1H66.6508V117.1ZM89.9885 94.0258L89.2885 98.5258L128.813 104.674L129.513 100.174L89.9885 94.0258ZM121.162 120.112L78.7616 115.612L74.54 155.388L116.94 159.888L121.162 120.112ZM76.6508 155.5H119.851V115.5H76.6508V155.5ZM100.16 131.999L99.3595 136.499L138.742 143.501L139.542 139.001L100.16 131.999ZM113.043 71.2318L81.8433 67.6318L77.2583 107.368L108.458 110.968L113.043 71.2318ZM79.5508 107.5H122.751V67.5H79.5508V107.5ZM118.29 68.0039L106.49 70.7039L115.412 109.696L127.212 106.996L118.29 68.0039ZM91.427 85.8615L91.227 86.7615L130.275 95.4385L130.475 94.5385L91.427 85.8615Z" fill="#5F3DC4" mask="url(#path-1-outside-1_2185_13)"/>
</svg>
